<svg xmlns="http://www.w3.org/2000/svg" xmlns:xlink="http://www.w3.org/1999/xlink" width="160" zoomAndPan="magnify" viewBox="0 0 120 30.000001" height="40" preserveAspectRatio="xMidYMid meet" version="1.0"><defs><g/><clipPath id="e6ea0eb955"><path d="M 36.644531 4.355469 L 56.964844 4.355469 L 56.964844 24.675781 L 36.644531 24.675781 Z M 36.644531 4.355469 " clip-rule="nonzero"/></clipPath><clipPath id="7f9695c0a4"><path d="M 62.773438 0 L 91.804688 0 L 91.804688 29.03125 L 62.773438 29.03125 Z M 62.773438 0 " clip-rule="nonzero"/></clipPath><clipPath id="2363ad92d2"><path d="M 97.742188 4.355469 L 118.0625 4.355469 L 118.0625 24.675781 L 97.742188 24.675781 Z M 97.742188 4.355469 " clip-rule="nonzero"/></clipPath><clipPath id="af735ad0f4"><path d="M 1.933594 0 L 30.742188 0 L 30.742188 29.03125 L 1.933594 29.03125 Z M 1.933594 0 " clip-rule="nonzero"/></clipPath></defs><g clip-path="url(#e6ea0eb955)"><path fill="#d9d9d9" d="M 36.644531 4.355469 L 56.964844 4.355469 L 56.964844 24.675781 L 36.644531 24.675781 Z M 36.644531 4.355469 " fill-opacity="1" fill-rule="nonzero"/></g><g fill="#000000" fill-opacity="1"><g transform="translate(43.425725, 18.145163)"><g><path d="M 0.828125 0 L 0.828125 -6.96875 L 6.109375 -6.96875 L 6.109375 -6.1875 L 1.78125 -6.1875 L 1.78125 -3.953125 L 5.8125 -3.953125 L 5.8125 -3.203125 L 1.78125 -3.203125 L 1.78125 -0.765625 L 6.3125 -0.765625 L 6.3125 0 Z M 0.828125 0 "/></g></g></g><g clip-path="url(#7f9695c0a4)"><path fill="#d9d9d9" d="M 62.773438 0 L 91.804688 0 L 91.804688 29.03125 L 62.773438 29.03125 Z M 62.773438 0 " fill-opacity="1" fill-rule="nonzero"/></g><g fill="#000000" fill-opacity="1"><g transform="translate(71.800221, 19.596776)"><g><path d="M 8.03125 0 L 2.4375 -8.90625 L 2.46875 -8.1875 L 2.515625 -6.953125 L 2.515625 0 L 1.25 0 L 1.25 -10.453125 L 2.890625 -10.453125 L 8.546875 -1.484375 C 8.492188 -2.460938 8.46875 -3.164062 8.46875 -3.59375 L 8.46875 -10.453125 L 9.734375 -10.453125 L 9.734375 0 Z M 8.03125 0 "/></g></g></g><g clip-path="url(#2363ad92d2)"><path fill="#d9d9d9" d="M 118.066406 24.675781 L 97.742188 24.675781 L 97.742188 4.355469 L 118.066406 4.355469 Z M 118.066406 24.675781 " fill-opacity="1" fill-rule="nonzero"/></g><g fill="#000000" fill-opacity="1"><g transform="translate(111.282759, 10.887099)"><g><path d="M -0.828125 0 L -0.828125 6.96875 L -6.109375 6.96875 L -6.109375 6.1875 L -1.78125 6.1875 L -1.78125 3.953125 L -5.8125 3.953125 L -5.8125 3.203125 L -1.78125 3.203125 L -1.78125 0.765625 L -6.3125 0.765625 L -6.3125 0 Z M -0.828125 0 "/></g></g></g><g clip-path="url(#af735ad0f4)"><path fill="#d9d9d9" d="M 1.710938 29.03125 L 1.710938 0 L 30.742188 0 L 30.742188 29.03125 Z M 1.710938 29.03125 " fill-opacity="1" fill-rule="nonzero"/></g><g fill="#000000" fill-opacity="1"><g transform="translate(21.307059, 20.855597)"><g><path d="M 0 -10.140625 L -6.984375 -10.140625 C -7.753906 -10.140625 -8.492188 -10.160156 -9.203125 -10.203125 C -8.316406 -9.960938 -7.625 -9.742188 -7.125 -9.546875 L 0 -6.859375 L 0 -5.859375 L -7.125 -3.125 L -8.390625 -2.703125 L -9.203125 -2.453125 L -8.375 -2.484375 L -6.984375 -2.515625 L 0 -2.515625 L 0 -1.25 L -10.453125 -1.25 L -10.453125 -3.109375 L -3.203125 -5.890625 C -2.910156 -5.992188 -2.597656 -6.085938 -2.265625 -6.171875 C -1.929688 -6.265625 -1.691406 -6.328125 -1.546875 -6.359375 C -1.742188 -6.398438 -2.039062 -6.484375 -2.4375 -6.609375 C -2.84375 -6.734375 -3.097656 -6.816406 -3.203125 -6.859375 L -10.453125 -9.59375 L -10.453125 -11.421875 L 0 -11.421875 Z M 0 -10.140625 "/></g></g></g></svg>